<svg class="svg-icon" style="width: 1em; height: 1em;vertical-align: middle;fill: currentColor;overflow: hidden;" viewBox="0 0 1024 1024" version="1.1" xmlns="http://www.w3.org/2000/svg"><path d="M512 0C229.216 0 0 229.216 0 512s229.216 512 512 512c282.784 0 512-229.216 512-512S794.784 0 512 0zM561.632 684.128c-46.528-3.616-66.048-26.656-102.496-48.8C439.072 740.48 414.592 841.312 342.016 893.984c-22.4-158.976 32.896-278.368 58.56-405.12-43.776-73.696 5.28-222.048 97.632-185.472 113.632 44.96-98.4 274.016 43.936 302.624 148.608 29.856 209.28-257.856 117.152-351.424-133.152-135.104-387.584-3.072-356.32 190.368 7.616 47.296 56.48 61.632 19.52 126.912-85.216-18.88-110.656-86.112-107.392-175.712 5.28-146.688 131.776-249.376 258.688-263.552 160.48-17.952 311.104 58.912 331.904 209.888C829.12 512.832 733.248 697.376 561.632 684.128z"  /></svg>